<?xml version="1.0" encoding="UTF-8"?>
<svg version="1.1" xmlns="http://www.w3.org/2000/svg" width="512" height="512">
<path d="M0 0 C1.63390938 -0.01270432 1.63390938 -0.01270432 3.30082703 -0.02566528 C6.87555867 -0.04892238 10.44985685 -0.05005989 14.0246582 -0.04882812 C16.53034127 -0.05593784 19.03602273 -0.06363801 21.54170227 -0.07189941 C26.78597374 -0.08531937 32.03013524 -0.08710774 37.27441406 -0.08105469 C42.63301063 -0.07516019 47.99111175 -0.08919468 53.34960938 -0.12207031 C59.85164849 -0.1614122 66.35326376 -0.17584926 72.85541725 -0.17127991 C75.31873209 -0.17296198 77.7820557 -0.18251547 80.24530602 -0.20042419 C101.09389101 -0.3353018 117.62330077 1.80066208 133.45043945 16.73242188 C145.67236627 29.5872699 150.0343812 44.66235018 149.76293945 61.98242188 C149.75391602 63.08650391 149.74489258 64.19058594 149.7355957 65.328125 C149.71224074 68.02562358 149.67948999 70.72265265 149.63793945 73.41992188 C150.82278679 73.41326004 150.82278679 73.41326004 152.03157043 73.40646362 C159.51865405 73.36619295 167.00568428 73.33583968 174.4928484 73.31629753 C178.34098285 73.30591261 182.18902692 73.2918516 186.03710938 73.26904297 C189.75890158 73.24712392 193.4806075 73.23531359 197.20245934 73.23016739 C198.61404463 73.22650551 200.02562584 73.21935608 201.43717384 73.20846176 C213.70563466 73.11764134 224.20399099 73.52039409 234.63793945 80.41992188 C235.52481445 80.99742188 236.41168945 81.57492188 237.32543945 82.16992188 C245.27821967 89.90776209 249.58542483 99.72712877 249.76657391 110.77191639 C249.77334648 112.49008771 249.77466565 114.20828587 249.77165222 115.9264679 C249.77391778 116.87671205 249.77618333 117.82695621 249.77851754 118.80599564 C249.78484162 121.98631744 249.7840292 125.16659644 249.78320312 128.34692383 C249.78619561 130.62874405 249.78959834 132.91056376 249.79338074 135.19238281 C249.80221585 141.38871789 249.80455865 147.58503917 249.80519652 153.78137994 C249.8059073 157.6533035 249.80804215 161.52522354 249.81069374 165.39714622 C249.81946808 178.20975335 249.82411366 191.02234931 249.82336327 203.83495901 C249.82330333 204.87027857 249.82330333 204.87027857 249.82324219 205.92651367 C249.82320131 206.61757311 249.82316043 207.30863255 249.82311831 208.02063318 C249.82271195 219.21744319 249.83227976 230.41421955 249.84638055 241.61101983 C249.86075742 253.11817321 249.86746703 264.62530586 249.86678678 276.13246888 C249.86653189 282.58869221 249.86937808 289.04487746 249.87996483 295.50109291 C249.88965139 301.57414478 249.8897211 307.6471222 249.8824482 313.7201767 C249.88140306 315.94656928 249.88376105 318.17296651 249.88980865 320.39935112 C249.89754145 323.44379628 249.89287513 326.48798517 249.88517761 329.53242493 C249.89032118 330.40870759 249.89546474 331.28499025 249.90076417 332.18782693 C249.85928556 339.63654262 249.0369785 346.83820451 245.07543945 353.29492188 C243.59871564 355.74006102 242.54900748 357.68671778 241.63793945 360.41992188 C242.10200195 361.28617187 242.10200195 361.28617187 242.57543945 362.16992188 C244.12091641 365.4426966 244.00848578 367.83797409 243.63793945 371.41992188 C240.43892947 378.21181395 234.33304772 381.12261379 228.07543945 384.85742188 C225.99055249 386.12653998 223.90591579 387.39606931 221.8215332 388.66601562 C220.79398926 389.28331543 219.76644531 389.90061523 218.70776367 390.53662109 C214.7969796 392.93584078 210.9881928 395.47941857 207.19287109 398.05688477 C203.01406726 400.28624567 199.78972256 400.69216152 195.20043945 399.60742188 C190.1218111 397.22681483 187.48386891 392.0305006 184.63793945 387.41992188 C181.99793945 389.39992188 179.35793945 391.37992187 176.63793945 393.41992188 C177.56606445 394.61617188 178.49418945 395.81242187 179.45043945 397.04492188 C185.20780188 404.87112375 186.70207979 410.63939611 185.63793945 420.41992188 C183.96333066 426.34254958 180.71337374 429.9367807 175.63793945 433.41992188 C170.10899757 436.28066792 165.87274482 436.81369429 159.70043945 436.60742188 C158.92120117 436.59388672 158.14196289 436.58035156 157.33911133 436.56640625 C155.43841541 436.53142412 153.53808111 436.47763146 151.63793945 436.41992188 C151.47938477 437.2165625 151.32083008 438.01320313 151.1574707 438.83398438 C149.72864648 445.32289881 148.67750445 449.95303472 143.63793945 454.41992188 C137.62373206 458.10208967 131.56545525 457.96655438 124.63793945 457.41992188 C123.97793945 457.08992188 123.31793945 456.75992187 122.63793945 456.41992188 C122.57606445 457.38929688 122.51418945 458.35867188 122.45043945 459.35742188 C121.53202768 465.64599135 118.28642327 471.31881795 113.45043945 475.41992188 C109.23776866 478.41559888 107.06195258 478.58013278 101.88793945 478.60742188 C100.6762207 478.62160156 99.46450195 478.63578125 98.21606445 478.65039062 C94.67548327 478.42234009 91.93104591 477.6977684 88.63793945 476.41992188 C88.09266602 477.52400391 88.09266602 477.52400391 87.53637695 478.65039062 C83.81605799 485.87162513 80.43702759 491.28406668 72.63793945 494.41992188 C57.73856485 496.13977678 46.53324839 491.13490323 34.4152832 482.89648438 C31.84470684 481.22951628 31.84470684 481.22951628 29.4855957 481.50976562 C27.36812686 482.55283167 25.86637324 483.75076411 24.13793945 485.35742188 C18.55835128 490.51854094 14.28414246 490.81329523 6.7668457 490.66210938 C1.09506716 490.22309531 -1.8888553 488.12417956 -5.67456055 484.10742188 C-8.21356092 480.99167729 -9.16276613 478.50545741 -9.36206055 474.41992188 C-10.35206055 474.74992187 -11.34206055 475.07992188 -12.36206055 475.41992188 C-14.98070215 475.56841627 -17.55530824 475.65092458 -20.17456055 475.66992188 C-21.22353516 475.70085937 -21.22353516 475.70085937 -22.29370117 475.73242188 C-27.09681805 475.76836662 -30.29669035 474.96301689 -34.36206055 472.41992188 C-38.92217348 467.65253108 -41.36206055 464.05744719 -41.36206055 457.41992188 C-41.91120117 457.59910156 -42.4603418 457.77828125 -43.02612305 457.96289062 C-48.70534434 459.07404262 -54.79473069 457.24633216 -59.79956055 454.60742188 C-65.26055014 449.94560149 -67.6787263 445.31535771 -69.36206055 438.41992188 C-69.54956055 435.35742188 -69.54956055 435.35742188 -69.36206055 433.41992188 C-70.02206055 433.74992187 -70.68206055 434.07992188 -71.36206055 434.41992188 C-85.00938508 435.40011645 -85.00938508 435.40011645 -90.36206055 431.41992188 C-95.016709 426.63597763 -96.44825218 421.84061788 -96.86206055 415.29492188 C-96.62339173 404.31615631 -89.80129828 395.89692224 -82.36206055 388.41992188 C-83.31081055 387.65679687 -84.25956055 386.89367187 -85.23706055 386.10742188 C-87.5281595 384.26458141 -88.67430999 382.95154771 -90.36206055 380.41992188 C-91.05041992 381.41572266 -91.05041992 381.41572266 -91.75268555 382.43164062 C-101.35946893 396.25652848 -101.35946893 396.25652848 -106.36206055 397.41992188 C-113.77324008 397.37064542 -119.00185045 393.29221237 -125.04956055 389.35742188 C-126.11650146 388.67437988 -127.18344238 387.99133789 -128.28271484 387.28759766 C-130.38015157 385.94163696 -132.47411597 384.5902466 -134.56420898 383.23291016 C-136.86316273 381.74320418 -139.17255429 380.27505947 -141.49487305 378.82226562 C-142.54416992 378.15324219 -143.5934668 377.48421875 -144.67456055 376.79492188 C-145.96813477 375.97121094 -145.96813477 375.97121094 -147.2878418 375.13085938 C-149.72435864 373.12107712 -150.98317473 371.25258507 -152.36206055 368.41992188 C-152.77608281 362.52010463 -152.77608281 362.52010463 -151.66674805 359.57226562 C-151.20206318 356.28968405 -152.65953013 354.40192397 -154.23706055 351.54492188 C-158.21433297 344.31183575 -158.5099286 337.98437276 -158.49577332 329.91337585 C-158.49803887 328.9631317 -158.50030443 328.01288754 -158.50263864 327.03384811 C-158.50896271 323.85352631 -158.50815029 320.67324731 -158.50732422 317.49291992 C-158.5103167 315.2110997 -158.51371944 312.92927999 -158.51750183 310.64746094 C-158.52633695 304.45112586 -158.52867974 298.25480458 -158.52931762 292.05846381 C-158.5300284 288.18654025 -158.53216325 284.31462021 -158.53481483 280.44269753 C-158.54358918 267.6300904 -158.54823475 254.81749444 -158.54748436 242.00488474 C-158.5474444 241.3146717 -158.54740445 240.62445866 -158.54736328 239.91333008 C-158.5473224 239.22227064 -158.54728152 238.5312112 -158.5472394 237.81921057 C-158.54683304 226.62240056 -158.55640085 215.4256242 -158.57050165 204.22882392 C-158.58487851 192.72167054 -158.59158813 181.21453789 -158.59090787 169.70737487 C-158.59065298 163.25115154 -158.59349917 156.79496629 -158.60408592 150.33875084 C-158.61377248 144.26569897 -158.61384219 138.19272155 -158.60656929 132.11966705 C-158.60552415 129.89327447 -158.60788214 127.66687724 -158.61392975 125.44049263 C-158.62166254 122.39604747 -158.61699622 119.35185858 -158.60929871 116.30741882 C-158.61444227 115.43113616 -158.61958583 114.5548535 -158.62488526 113.65201682 C-158.56115552 102.20744834 -155.51604625 91.80040718 -147.36206055 83.41992188 C-137.77281433 75.98064555 -128.74315434 73.28272676 -116.60058594 73.30639648 C-114.6493557 73.30650978 -114.6493557 73.30650978 -112.65870667 73.30662537 C-111.25904298 73.31173047 -109.85937969 73.31694644 -108.4597168 73.32226562 C-107.01240589 73.32413321 -105.56509436 73.32555551 -104.11778259 73.32655334 C-100.32846295 73.3303517 -96.53918229 73.34015878 -92.74987793 73.35125732 C-88.87516812 73.3615294 -85.00045195 73.36606333 -81.12573242 73.37109375 C-73.53782412 73.38178372 -65.94994782 73.39882754 -58.36206055 73.41992188 C-58.36762466 72.72791183 -58.37318878 72.03590179 -58.37892151 71.32292175 C-58.4011261 68.1612553 -58.41486778 64.99960533 -58.4284668 61.83789062 C-58.43736938 60.74923706 -58.44627197 59.6605835 -58.45544434 58.53894043 C-58.50900491 41.93831183 -53.2172774 28.68326481 -41.61206055 16.56835938 C-29.92008816 5.40414963 -16.09113058 -0.04685377 0 0 Z " fill="#8AC8FD" transform="translate(210.362060546875,8.580078125)"/>
<path d="M0 0 C3.81231878 1.7403111 7.17694077 4.00559871 10.625 6.375 C11.58051758 7.00970215 12.53603516 7.6444043 13.52050781 8.29833984 C15.44726984 9.58058413 17.36860345 10.87102619 19.28417969 12.16992188 C21.73393918 13.8207127 24.20416083 15.42828518 26.6953125 17.015625 C28.04710407 17.88506061 29.3986834 18.75482634 30.75 19.625 C31.66966553 20.20773682 31.66966553 20.20773682 32.60791016 20.80224609 C35.71054543 22.84465734 37.81382288 24.41199841 39 28 C39.57356222 33.16205995 38.18849966 36.4406257 36 41 C49.83259981 45.51676728 63.76787031 42.54086442 77.4921875 39.1328125 C86.57330943 36.97064061 99.46307278 34.05884027 108.25 38.6875 C110.92246855 40.9348031 112.86747143 43.25231895 115 46 C115.54414551 45.73783691 116.08829102 45.47567383 116.64892578 45.20556641 C119.13919476 44.00835225 121.63205931 42.81664027 124.125 41.625 C124.9809375 41.2125 125.836875 40.8 126.71875 40.375 C136.34239515 35.78526154 144.77787349 32.85644647 155.421875 36.015625 C159.38073257 37.52984241 163.24512496 39.19131691 167.09375 40.96484375 C175.91789054 44.99587159 185.51670755 44.11113233 195 44 C194.34 42.96875 193.68 41.9375 193 40.875 C191.03861481 37.3935413 190.31117413 35.046852 191 31 C194.25825947 24.26110726 200.18459647 21.36029086 206.4375 17.625 C208.61207949 16.30485275 210.78655949 14.98454159 212.9609375 13.6640625 C214.00475586 13.03532227 215.04857422 12.40658203 216.12402344 11.75878906 C218.528084 10.28859787 220.88654813 8.77995768 223.2265625 7.2109375 C223.80736572 6.82728027 224.38816895 6.44362305 224.98657227 6.04833984 C226.43650105 5.08381712 227.87693698 4.10506418 229.31640625 3.125 C232.99758606 1.58179798 235.17598881 1.96764602 239 3 C244.46108488 6.11340741 247.23254893 11.65746973 250.4375 16.875 C251.68596384 18.87254215 252.93466843 20.86993385 254.18359375 22.8671875 C254.81765137 23.88780273 255.45170898 24.90841797 256.10498047 25.95996094 C259.03586818 30.66176637 262.01883858 35.32997636 265 40 C266.16956616 41.8370516 267.3388363 43.67429169 268.5078125 45.51171875 C269.08563477 46.41970215 269.66345703 47.32768555 270.25878906 48.26318359 C271.98299368 50.97326966 273.70644183 53.68383534 275.4296875 56.39453125 C281.73470891 66.31111474 288.0488786 76.22186278 294.375 86.125 C295.01679199 87.13151611 295.65858398 88.13803223 296.31982422 89.17504883 C300.21567368 95.26828613 304.18493195 101.30559758 308.22509766 107.30419922 C313.77040945 115.72666591 313.77040945 115.72666591 313 122 C309.78782866 128.7897993 303.70063559 131.69939297 297.4375 135.4375 C295.35261304 136.70661811 293.26797634 137.97614744 291.18359375 139.24609375 C290.1560498 139.86339355 289.12850586 140.48069336 288.06982422 141.11669922 C284.15904014 143.51591891 280.35025335 146.0594967 276.55493164 148.63696289 C272.3761278 150.86632379 269.1517831 151.27223964 264.5625 150.1875 C259.48387164 147.80689296 256.84592946 142.61057873 254 138 C250.04 140.97 250.04 140.97 246 144 C246.928125 145.19625 247.85625 146.3925 248.8125 147.625 C254.56986242 155.45120188 256.06414033 161.21947424 255 171 C253.32539121 176.92262771 250.07543428 180.51685882 245 184 C239.47105812 186.86074605 235.23480537 187.39377242 229.0625 187.1875 C228.28326172 187.17396484 227.50402344 187.16042969 226.70117188 187.14648438 C224.80047596 187.11150224 222.90014166 187.05770959 221 187 C220.84144531 187.79664063 220.68289063 188.59328125 220.51953125 189.4140625 C219.09070703 195.90297693 218.03956499 200.53311285 213 205 C206.98579261 208.68216779 200.92751579 208.54663251 194 208 C193.34 207.67 192.68 207.34 192 207 C191.938125 207.969375 191.87625 208.93875 191.8125 209.9375 C190.89408823 216.22606948 187.64848382 221.89889608 182.8125 226 C178.59982921 228.99567701 176.42401313 229.1602109 171.25 229.1875 C170.03828125 229.20167969 168.8265625 229.21585938 167.578125 229.23046875 C164.03754382 229.00241822 161.29310645 228.27784652 158 227 C157.63648438 227.73605469 157.27296875 228.47210938 156.8984375 229.23046875 C153.17811854 236.45170325 149.79908814 241.8641448 142 245 C127.1006254 246.71985491 115.89530894 241.71498135 103.77734375 233.4765625 C101.20676738 231.8095944 101.20676738 231.8095944 98.84765625 232.08984375 C96.73018741 233.1329098 95.22843378 234.33084223 93.5 235.9375 C87.92041182 241.09861906 83.64620301 241.39337336 76.12890625 241.2421875 C70.45712771 240.80317343 67.47320525 238.70425768 63.6875 234.6875 C61.14849963 231.57175542 60.19929442 229.08553554 60 225 C59.01 225.33 58.02 225.66 57 226 C54.38135839 226.1484944 51.8067523 226.2310027 49.1875 226.25 C48.13852539 226.2809375 48.13852539 226.2809375 47.06835938 226.3125 C42.26524249 226.34844475 39.0653702 225.54309502 35 223 C30.43988706 218.2326092 28 214.63752531 28 208 C27.45085937 208.17917969 26.90171875 208.35835937 26.3359375 208.54296875 C20.6567162 209.65412074 14.56732986 207.82641029 9.5625 205.1875 C4.10151041 200.52567962 1.68333425 195.89543584 0 189 C-0.1875 185.9375 -0.1875 185.9375 0 184 C-0.66 184.33 -1.32 184.66 -2 185 C-15.64732453 185.98019458 -15.64732453 185.98019458 -21 182 C-25.65464846 177.21605575 -27.08619163 172.42069601 -27.5 165.875 C-27.26133118 154.89623444 -20.43923774 146.47700036 -13 139 C-13.94875 138.236875 -14.8975 137.47375 -15.875 136.6875 C-18.16609895 134.84465954 -19.31224944 133.53162583 -21 131 C-21.45890625 131.66386719 -21.9178125 132.32773437 -22.390625 133.01171875 C-31.99740838 146.8366066 -31.99740838 146.8366066 -37 148 C-44.41117953 147.95072354 -49.63978991 143.8722905 -55.6875 139.9375 C-56.75444092 139.25445801 -57.82138184 138.57141602 -58.9206543 137.86767578 C-61.01809103 136.52171508 -63.11205542 135.17032472 -65.20214844 133.81298828 C-67.50110218 132.3232823 -69.81049374 130.8551376 -72.1328125 129.40234375 C-73.18210937 128.73332031 -74.23140625 128.06429687 -75.3125 127.375 C-76.17488281 126.82585937 -77.03726563 126.27671875 -77.92578125 125.7109375 C-81.45675234 122.79838508 -82.79021441 120.26327407 -83.5390625 115.75390625 C-82.78662545 110.5141091 -80.3671175 107.22150372 -77.375 102.9375 C-76.16924308 101.14933349 -74.96486233 99.3602384 -73.76171875 97.5703125 C-73.13700684 96.65024414 -72.51229492 95.73017578 -71.86865234 94.78222656 C-68.88938059 90.34640465 -66.04059088 85.83009832 -63.1875 81.3125 C-62.0148615 79.46450189 -60.84167444 77.61685176 -59.66796875 75.76953125 C-59.07161621 74.83061035 -58.47526367 73.89168945 -57.86083984 72.92431641 C-53.91075118 66.71673809 -49.93734922 60.52405268 -45.96826172 54.32861328 C-42.15278908 48.37057052 -38.34784993 42.40606213 -34.55615234 36.43286133 C-32.28005672 32.84917395 -29.99792186 29.26936018 -27.71435547 25.69042969 C-26.53919874 23.8461934 -25.36646865 22.00040926 -24.19580078 20.15332031 C-22.42927324 17.36846394 -20.65321455 14.58990417 -18.875 11.8125 C-18.07606323 10.54635864 -18.07606323 10.54635864 -17.26098633 9.25463867 C-16.75978271 8.47580322 -16.2585791 7.69696777 -15.7421875 6.89453125 C-15.3076123 6.21237549 -14.87303711 5.53021973 -14.42529297 4.82739258 C-10.39800534 -0.33606202 -6.25121387 -1.23573319 0 0 Z " fill="#F5DBCC" transform="translate(141,258)"/>
<path d="M0 0 C1.63390938 -0.01270432 1.63390938 -0.01270432 3.30082703 -0.02566528 C6.87555867 -0.04892238 10.44985685 -0.05005989 14.0246582 -0.04882812 C16.53034127 -0.05593784 19.03602273 -0.06363801 21.54170227 -0.07189941 C26.78597374 -0.08531937 32.03013524 -0.08710774 37.27441406 -0.08105469 C42.63301063 -0.07516019 47.99111175 -0.08919468 53.34960938 -0.12207031 C59.85164849 -0.1614122 66.35326376 -0.17584926 72.85541725 -0.17127991 C75.31873209 -0.17296198 77.7820557 -0.18251547 80.24530602 -0.20042419 C101.09389101 -0.3353018 117.62330077 1.80066208 133.45043945 16.73242188 C145.67236627 29.5872699 150.0343812 44.66235018 149.76293945 61.98242188 C149.75391602 63.08650391 149.74489258 64.19058594 149.7355957 65.328125 C149.71224074 68.02562358 149.67948999 70.72265265 149.63793945 73.41992188 C150.82278679 73.41326004 150.82278679 73.41326004 152.03157043 73.40646362 C159.51865405 73.36619295 167.00568428 73.33583968 174.4928484 73.31629753 C178.34098285 73.30591261 182.18902692 73.2918516 186.03710938 73.26904297 C189.75890158 73.24712392 193.4806075 73.23531359 197.20245934 73.23016739 C198.61404463 73.22650551 200.02562584 73.21935608 201.43717384 73.20846176 C213.70563466 73.11764134 224.20399099 73.52039409 234.63793945 80.41992188 C235.52481445 80.99742188 236.41168945 81.57492188 237.32543945 82.16992188 C246.48339502 91.08036513 249.70559252 101.68709066 249.87963867 114.16113281 C249.92184802 128.82515551 248.85012957 141.32673052 238.59887695 152.67773438 C230.8799039 160.06940115 221.83418005 163.55063457 211.17729187 163.54017639 C210.09340683 163.54155106 209.00952179 163.54292572 207.89279175 163.54434204 C206.7138736 163.54074677 205.53495544 163.53715149 204.3203125 163.53344727 C203.07112534 163.53359329 201.82193817 163.53373932 200.53489685 163.53388977 C197.11792273 163.53331323 193.70100931 163.52830412 190.28404593 163.52131581 C186.70993972 163.51505692 183.13583266 163.51447647 179.5617218 163.51329041 C172.79743079 163.51018457 166.03315597 163.50198125 159.26887208 163.49194092 C151.56636563 163.48075658 143.86385839 163.47526348 136.16134584 163.47024548 C120.320201 163.45979801 104.47907232 163.44221304 88.63793945 163.41992188 C88.58186523 162.081875 88.58186523 162.081875 88.5246582 160.71679688 C88.45891602 159.54632813 88.39317383 158.37585938 88.32543945 157.16992188 C88.23842773 155.4296875 88.23842773 155.4296875 88.1496582 153.65429688 C87.61418536 150.26978149 87.03909803 148.81537699 84.63793945 146.41992188 C81.1454716 145.25576592 78.36171479 145.26422902 74.67553711 145.22705078 C73.61891121 145.21478455 73.61891121 145.21478455 72.54093933 145.20227051 C70.21130211 145.17747045 67.88172552 145.1609161 65.55200195 145.14648438 C64.75561687 145.1411607 63.9592318 145.13583702 63.13871384 145.13035202 C58.92492384 145.10364626 54.71116323 145.08426155 50.49731445 145.06982422 C47.01104559 145.05647404 43.52536054 145.02859894 40.03930664 144.98779297 C35.82771859 144.93849673 31.61666085 144.91370747 27.4047966 144.90659714 C25.80120427 144.89988295 24.19762385 144.8846563 22.59419632 144.86070633 C20.34854696 144.8290722 18.10494468 144.8290137 15.85913086 144.83642578 C13.94410263 144.8242955 13.94410263 144.8242955 11.99038696 144.81192017 C8.57387613 145.22897538 8.57387613 145.22897538 5.74911499 147.14389038 C2.48543146 152.20833427 2.7331404 157.50880868 2.63793945 163.41992188 C-13.97428516 163.51361252 -30.58642328 163.58402164 -47.19884872 163.62717056 C-54.91333633 163.64774324 -62.62765919 163.67576168 -70.34204102 163.72167969 C-77.07061101 163.76171059 -83.79906161 163.78739311 -90.52774739 163.79627585 C-94.08632401 163.80146333 -97.64455926 163.81354307 -101.20302582 163.8428421 C-105.18815363 163.875384 -109.17269851 163.87587097 -113.15795898 163.87402344 C-114.32106094 163.88840454 -115.4841629 163.90278564 -116.68251038 163.91760254 C-127.95319165 163.86136115 -137.9767858 161.20221057 -146.36206055 153.41992188 C-146.90475586 152.91847656 -147.44745117 152.41703125 -148.0065918 151.90039062 C-157.09842054 142.44028527 -158.54116481 130.09188133 -158.54956055 117.60742188 C-158.56180664 116.66060547 -158.57405273 115.71378906 -158.58666992 114.73828125 C-158.61128144 102.81810483 -155.90286686 92.19797281 -147.36206055 83.41992188 C-137.77281433 75.98064555 -128.74315434 73.28272676 -116.60058594 73.30639648 C-114.6493557 73.30650978 -114.6493557 73.30650978 -112.65870667 73.30662537 C-111.25904298 73.31173047 -109.85937969 73.31694644 -108.4597168 73.32226562 C-107.01240589 73.32413321 -105.56509436 73.32555551 -104.11778259 73.32655334 C-100.32846295 73.3303517 -96.53918229 73.34015878 -92.74987793 73.35125732 C-88.87516812 73.3615294 -85.00045195 73.36606333 -81.12573242 73.37109375 C-73.53782412 73.38178372 -65.94994782 73.39882754 -58.36206055 73.41992188 C-58.36762466 72.72791183 -58.37318878 72.03590179 -58.37892151 71.32292175 C-58.4011261 68.1612553 -58.41486778 64.99960533 -58.4284668 61.83789062 C-58.43736938 60.74923706 -58.44627197 59.6605835 -58.45544434 58.53894043 C-58.50900491 41.93831183 -53.2172774 28.68326481 -41.61206055 16.56835938 C-29.92008816 5.40414963 -16.09113058 -0.04685377 0 0 Z " fill="#4EB1FB" transform="translate(210.362060546875,8.580078125)"/>
<path d="M0 0 C0.33 0 0.66 0 1 0 C1.15855469 0.76183594 1.31710938 1.52367187 1.48046875 2.30859375 C4.09544563 13.88095001 8.06091032 22.07085546 18 29 C24.26675952 32.17932374 30.34733745 34.11034179 37.37835693 34.15821838 C38.46928146 34.1680072 39.56020599 34.17779602 40.68418884 34.18788147 C41.87605301 34.19363693 43.06791718 34.1993924 44.29589844 34.20532227 C45.55469315 34.21522186 46.81348785 34.22512146 48.11042786 34.23532104 C51.55840792 34.26232751 55.0064016 34.28336008 58.45442867 34.30332303 C62.05926425 34.32520889 65.66405803 34.35258485 69.26885986 34.37937927 C76.09336066 34.42927102 82.91788471 34.47422288 89.74243093 34.51740164 C97.51265734 34.5668041 105.28284181 34.62171106 113.05302763 34.67708123 C129.03531297 34.79084726 145.01763692 34.89769799 161 35 C160.95359375 34.11957031 160.9071875 33.23914063 160.859375 32.33203125 C160.82328125 31.17058594 160.7871875 30.00914062 160.75 28.8125 C160.70359375 27.66394531 160.6571875 26.51539063 160.609375 25.33203125 C161.0750057 21.36020138 162.22370387 19.81228515 165 17 C167.94083558 15.52958221 170.56568789 15.85641777 173.84887695 15.83886719 C174.55314819 15.83390228 175.25741943 15.82893738 175.98303223 15.82382202 C178.31812511 15.80919089 180.65315002 15.80239632 182.98828125 15.796875 C184.6101227 15.79112366 186.23196413 15.78536592 187.85380554 15.77960205 C191.2576021 15.7690889 194.66137503 15.76324852 198.06518555 15.75976562 C202.4232318 15.75428483 206.780965 15.73026718 211.13891315 15.70179367 C214.4906861 15.6831525 217.84238393 15.67796087 221.19420433 15.67642975 C222.80054623 15.67340525 224.40688686 15.66538354 226.01317787 15.65224457 C228.26333905 15.63515517 230.51273939 15.63707116 232.76293945 15.64355469 C234.04264114 15.63990906 235.32234283 15.63626343 236.64082336 15.63250732 C240.27607987 16.03020304 242.11749667 16.79074681 245 19 C247.42130331 22.63195496 247.21022785 24.38349348 247.125 28.6875 C247.10695313 29.86699219 247.08890625 31.04648438 247.0703125 32.26171875 C247.04710937 33.16535156 247.02390625 34.06898438 247 35 C263.46475931 34.9627192 279.92925783 34.90269195 296.39382458 34.81609726 C304.03981534 34.77640523 311.68570464 34.74396309 319.33178711 34.72900391 C326.00151866 34.71593606 332.67102606 34.68884185 339.34063131 34.64538693 C342.86729697 34.62288645 346.39368734 34.60708237 349.92043114 34.60811615 C353.87190559 34.60901018 357.82282417 34.57856734 361.77416992 34.54589844 C362.92432587 34.5509288 364.07448181 34.55595917 365.25949097 34.56114197 C376.48621213 34.41848257 387.79427474 32.14952166 396 24 C402.35589785 16.87500949 405.21244104 9.27427651 407 0 C407.33 0 407.66 0 408 0 C408.04980921 5.51349605 408.08591163 11.02685821 408.10986328 16.54052734 C408.11985894 18.41229538 408.13345997 20.28404805 408.15087891 22.15576172 C408.17541268 24.86169246 408.18654768 27.56741499 408.1953125 30.2734375 C408.20563507 31.09677582 408.21595764 31.92011414 408.22659302 32.7684021 C408.22883492 44.64225161 405.55268556 55.43973454 397.3125 64.3125 C387.44849671 73.52510684 376.3287717 75.30598481 363.36352539 75.22705078 C361.47467621 75.22748886 361.47467621 75.22748886 359.54766846 75.22793579 C356.11218427 75.22850724 352.67684107 75.21678688 349.24138951 75.20278788 C345.64461189 75.19024561 342.04783067 75.18910727 338.45103455 75.18673706 C331.64782934 75.18053253 324.84468876 75.16413569 318.04151195 75.14403808 C310.29301765 75.12164703 302.54452018 75.1106776 294.79600155 75.10064721 C278.86396366 75.0797685 262.93199018 75.0446126 247 75 C247.00818253 75.6310968 247.01636505 76.2621936 247.02479553 76.91241455 C247.05748673 79.80095949 247.07766908 82.68946534 247.09765625 85.578125 C247.11074829 86.57086426 247.12384033 87.56360352 247.1373291 88.58642578 C247.20532035 101.69513788 243.11630441 111.42505643 234.12109375 121 C224.85737341 129.68356816 213.55252338 133.60806699 200.95703125 133.30859375 C187.72340851 131.92754197 177.2704725 125.56814776 168.7578125 115.5390625 C163.92713489 108.56141706 160.85295404 100.29190433 160.90234375 91.796875 C160.90556641 90.8171875 160.90878906 89.8375 160.91210938 88.828125 C160.92048828 87.81234375 160.92886719 86.7965625 160.9375 85.75 C160.94201172 84.71875 160.94652344 83.6875 160.95117188 82.625 C160.96293912 80.08327427 160.97937989 77.54166681 161 75 C160.01934507 75.00553076 160.01934507 75.00553076 159.01887894 75.01117325 C143.06702294 75.09974209 127.11525318 75.16581504 111.16321182 75.20724869 C103.44872422 75.22782137 95.73440135 75.2558398 88.02001953 75.30175781 C81.29144954 75.34178872 74.56299893 75.36747124 67.83431315 75.37635398 C64.27573654 75.38154145 60.71750128 75.3936212 57.15903473 75.42292023 C53.17390692 75.45546213 49.18936203 75.45594909 45.20410156 75.45410156 C44.0409996 75.46848267 42.87789764 75.48286377 41.67955017 75.49768066 C29.2995745 75.43590383 19.16877426 72.08541642 10.3203125 63.33984375 C1.62307732 53.84211677 -0.35270875 42.82751603 -0.1953125 30.2734375 C-0.19106766 28.96289902 -0.19106766 28.96289902 -0.18673706 27.62588501 C-0.17567303 24.87544186 -0.15059581 22.12534226 -0.125 19.375 C-0.11495234 17.49349433 -0.10582964 15.61198349 -0.09765625 13.73046875 C-0.07577912 9.15351643 -0.04134719 4.57681615 0 0 Z " fill="#FEEA87" transform="translate(52,137)"/>
<path d="M0 0 C5.46108488 3.11340741 8.23254893 8.65746973 11.4375 13.875 C12.68596384 15.87254215 13.93466843 17.86993385 15.18359375 19.8671875 C16.13468018 21.39811035 16.13468018 21.39811035 17.10498047 22.95996094 C20.03586818 27.66176637 23.01883858 32.32997636 26 37 C27.16956616 38.8370516 28.3388363 40.67429169 29.5078125 42.51171875 C30.08563477 43.41970215 30.66345703 44.32768555 31.25878906 45.26318359 C32.98299368 47.97326966 34.70644183 50.68383534 36.4296875 53.39453125 C42.73470891 63.31111474 49.0488786 73.22186278 55.375 83.125 C56.01679199 84.13151611 56.65858398 85.13803223 57.31982422 86.17504883 C61.21567368 92.26828613 65.18493195 98.30559758 69.22509766 104.30419922 C74.77040945 112.72666591 74.77040945 112.72666591 74 119 C70.78782866 125.7897993 64.70063559 128.69939297 58.4375 132.4375 C56.35261304 133.70661811 54.26797634 134.97614744 52.18359375 136.24609375 C51.1560498 136.86339355 50.12850586 137.48069336 49.06982422 138.11669922 C45.15904014 140.51591891 41.35025335 143.0594967 37.55493164 145.63696289 C33.3761278 147.86632379 30.1517831 148.27223964 25.5625 147.1875 C20.48387164 144.80689296 17.84592946 139.61057873 15 135 C14.48050781 135.44472656 13.96101562 135.88945312 13.42578125 136.34765625 C12.72839844 136.91355469 12.03101563 137.47945312 11.3125 138.0625 C10.62800781 138.63097656 9.94351563 139.19945312 9.23828125 139.78515625 C7 141 7 141 4.55859375 140.890625 C1.57520876 139.85213374 -0.64742694 138.48327541 -3.25 136.6875 C-4.83554687 135.59888672 -4.83554687 135.59888672 -6.453125 134.48828125 C-7.6363677 133.66021146 -8.81861639 132.83071996 -10 132 C-10.62455078 131.56220215 -11.24910156 131.1244043 -11.89257812 130.67333984 C-17.75224692 126.56080666 -23.59722993 122.42722254 -29.42529297 118.27001953 C-43.8786978 107.96488149 -58.54674762 98.3536409 -74.1875 89.9375 C-75.21170044 89.38195435 -75.21170044 89.38195435 -76.2565918 88.81518555 C-83.0558281 85.24022531 -90.23408597 82.58331528 -98 84 C-100.73819506 85.4153268 -102.86131515 87.30058226 -105.125 89.375 C-106.42563242 90.48653338 -107.73043217 91.59320642 -109.0390625 92.6953125 C-109.69551758 93.25250977 -110.35197266 93.80970703 -111.02832031 94.38378906 C-124.80221932 105.67442941 -143.25845388 117.8775013 -161.57421875 117.359375 C-165.00023525 116.851817 -166.76628137 115.60600507 -169 113 C-171.53100888 105.40697335 -170.20449511 97.19231124 -167 90 C-152.63411823 64.45074029 -129.5028447 41.54758117 -101.07348633 32.5625 C-90.50524855 29.69552486 -81.42297024 33.57934021 -71.90625 37.96484375 C-63.08210946 41.99587159 -53.48329245 41.11113233 -44 41 C-44.99 39.453125 -44.99 39.453125 -46 37.875 C-47.96138519 34.3935413 -48.68882587 32.046852 -48 28 C-44.74174053 21.26110726 -38.81540353 18.36029086 -32.5625 14.625 C-30.38792051 13.30485275 -28.21344051 11.98454159 -26.0390625 10.6640625 C-24.99524414 10.03532227 -23.95142578 9.40658203 -22.87597656 8.75878906 C-20.471916 7.28859787 -18.11345187 5.77995768 -15.7734375 4.2109375 C-15.19263428 3.82728027 -14.61183105 3.44362305 -14.01342773 3.04833984 C-12.56349895 2.08381712 -11.12306302 1.10506418 -9.68359375 0.125 C-6.00241394 -1.41820202 -3.82401119 -1.03235398 0 0 Z " fill="#D5B4A8" transform="translate(380,261)"/>
<path d="M0 0 C1.63390938 -0.01270432 1.63390938 -0.01270432 3.30082703 -0.02566528 C6.87555867 -0.04892238 10.44985685 -0.05005989 14.0246582 -0.04882812 C16.53034127 -0.05593784 19.03602273 -0.06363801 21.54170227 -0.07189941 C26.78597374 -0.08531937 32.03013524 -0.08710774 37.27441406 -0.08105469 C42.63301063 -0.07516019 47.99111175 -0.08919468 53.34960938 -0.12207031 C59.85164849 -0.1614122 66.35326376 -0.17584926 72.85541725 -0.17127991 C75.31873209 -0.17296198 77.7820557 -0.18251547 80.24530602 -0.20042419 C101.09389101 -0.3353018 117.62330077 1.80066208 133.45043945 16.73242188 C149.41874079 33.5276531 149.63793945 51.39087359 149.63793945 74.41992188 C80.99793945 74.41992188 12.35793945 74.41992188 -58.36206055 74.41992188 C-58.36206055 50.53381564 -57.9106704 33.58278655 -41.61206055 16.56835938 C-29.92008816 5.40414963 -16.09113058 -0.04685377 0 0 Z " fill="#EBEFF1" transform="translate(210.362060546875,8.580078125)"/>
<path d="M0 0 C6.50183726 2.68117 10.10925331 6.71576806 13 13 C13.66386719 12.59007812 14.32773438 12.18015625 15.01171875 11.7578125 C15.89472656 11.21898437 16.77773437 10.68015625 17.6875 10.125 C18.99267578 9.32449219 18.99267578 9.32449219 20.32421875 8.5078125 C26.62625506 4.95659204 31.82704616 4.20518569 39 5 C44.66840268 6.59128148 48.91684223 8.82029494 52 14 C53.761557 18.13965896 54.21343713 21.51782019 54 26 C54.99 25.67 55.98 25.34 57 25 C63.29071167 24.34313854 69.38176163 24.96425394 75 28 C77.91251543 30.63774983 80.24141011 33.48282022 82 37 C82.09800068 39.24825087 82.12974764 41.49961924 82.125 43.75 C82.12886719 45.56757813 82.12886719 45.56757813 82.1328125 47.421875 C82.01077361 50.70974633 81.62341681 53.77406537 81 57 C81.73605469 57.24234375 82.47210938 57.4846875 83.23046875 57.734375 C89.66811872 59.94545689 94.45362325 61.83898059 98.8125 67.25 C101.1845264 72.74311377 100.43912643 77.37704893 98.4375 82.8125 C93.9661355 93.04172685 86.50196275 106.19774682 76.1171875 111.4140625 C70.06639061 113.08863729 63.51331162 112.77684177 57.5625 110.9375 C53.0154495 107.49948621 49.55511727 104.18081785 48.125 98.5625 C48.08375 97.716875 48.0425 96.87125 48 96 C46.515 96.495 46.515 96.495 45 97 C42.38135839 97.1484944 39.8067523 97.2310027 37.1875 97.25 C36.48818359 97.270625 35.78886719 97.29125 35.06835938 97.3125 C30.26524249 97.34844475 27.0653702 96.54309502 23 94 C18.43988706 89.2326092 16 85.63752531 16 79 C15.45085937 79.17917969 14.90171875 79.35835938 14.3359375 79.54296875 C8.6567162 80.65412074 2.56732986 78.82641029 -2.4375 76.1875 C-7.89848959 71.52567962 -10.31666575 66.89543584 -12 60 C-12.1875 56.9375 -12.1875 56.9375 -12 55 C-12.99 55.495 -12.99 55.495 -14 56 C-27.64732453 56.98019458 -27.64732453 56.98019458 -33 53 C-37.65464846 48.21605575 -39.08619163 43.42069601 -39.5 36.875 C-39.26302976 26.60164303 -33.30567792 18.53771584 -26.44921875 11.33203125 C-17.8967185 3.18874154 -12.12728291 -1.54753058 0 0 Z " fill="#D5B3A7" transform="translate(153,387)"/>
<path d="M0 0 C3.81231878 1.7403111 7.17694077 4.00559871 10.625 6.375 C11.58051758 7.00970215 12.53603516 7.6444043 13.52050781 8.29833984 C15.44726984 9.58058413 17.36860345 10.87102619 19.28417969 12.16992188 C21.73393918 13.8207127 24.20416083 15.42828518 26.6953125 17.015625 C28.04710407 17.88506061 29.3986834 18.75482634 30.75 19.625 C31.66966553 20.20773682 31.66966553 20.20773682 32.60791016 20.80224609 C35.70944277 22.84393148 37.94507435 24.36185898 39 28 C39.89755993 33.88866418 37.39348858 37.3782588 34.3125 42.125 C33.81919189 42.9077832 33.32588379 43.69056641 32.81762695 44.49707031 C31.22763061 47.0086125 29.61682793 49.50565877 28 52 C27.48147461 52.8034082 26.96294922 53.60681641 26.42871094 54.43457031 C23.7568393 58.57020652 21.07000581 62.69581572 18.375 66.81640625 C14.93788978 72.08072732 11.55696011 77.37969456 8.1875 82.6875 C2.28720159 91.9820561 -3.64030304 101.25879894 -9.58325195 110.52612305 C-12.34730278 114.83961638 -15.1102968 119.15388034 -17.84765625 123.484375 C-18.222854 124.07702148 -18.59805176 124.66966797 -18.98461914 125.28027344 C-20.06035806 127.10222702 -20.97680795 128.96002508 -21.875 130.875 C-24.90158981 137.03801554 -28.39759081 143.10240997 -34 147.1875 C-38.87993666 148.50914951 -42.20282921 147.93405367 -46.62255859 145.63696289 C-49.68675449 143.79725427 -52.69172495 141.88662571 -55.6875 139.9375 C-56.75444092 139.25445801 -57.82138184 138.57141602 -58.9206543 137.86767578 C-61.01809103 136.52171508 -63.11205542 135.17032472 -65.20214844 133.81298828 C-67.50110218 132.3232823 -69.81049374 130.8551376 -72.1328125 129.40234375 C-73.18210937 128.73332031 -74.23140625 128.06429687 -75.3125 127.375 C-76.17488281 126.82585937 -77.03726563 126.27671875 -77.92578125 125.7109375 C-81.45675234 122.79838508 -82.79021441 120.26327407 -83.5390625 115.75390625 C-82.78662545 110.5141091 -80.3671175 107.22150372 -77.375 102.9375 C-76.16924308 101.14933349 -74.96486233 99.3602384 -73.76171875 97.5703125 C-73.13700684 96.65024414 -72.51229492 95.73017578 -71.86865234 94.78222656 C-68.88938059 90.34640465 -66.04059088 85.83009832 -63.1875 81.3125 C-62.0148615 79.46450189 -60.84167444 77.61685176 -59.66796875 75.76953125 C-59.07161621 74.83061035 -58.47526367 73.89168945 -57.86083984 72.92431641 C-53.91075118 66.71673809 -49.93734922 60.52405268 -45.96826172 54.32861328 C-42.15278908 48.37057052 -38.34784993 42.40606213 -34.55615234 36.43286133 C-32.28005672 32.84917395 -29.99792186 29.26936018 -27.71435547 25.69042969 C-26.53919874 23.8461934 -25.36646865 22.00040926 -24.19580078 20.15332031 C-22.42927324 17.36846394 -20.65321455 14.58990417 -18.875 11.8125 C-18.07606323 10.54635864 -18.07606323 10.54635864 -17.26098633 9.25463867 C-16.75978271 8.47580322 -16.2585791 7.69696777 -15.7421875 6.89453125 C-15.3076123 6.21237549 -14.87303711 5.53021973 -14.42529297 4.82739258 C-10.39800534 -0.33606202 -6.25121387 -1.23573319 0 0 Z " fill="#FA545C" transform="translate(141,258)"/>
<path d="M0 0 C5.46108488 3.11340741 8.23254893 8.65746973 11.4375 13.875 C12.68596384 15.87254215 13.93466843 17.86993385 15.18359375 19.8671875 C15.81765137 20.88780273 16.45170898 21.90841797 17.10498047 22.95996094 C20.03586818 27.66176637 23.01883858 32.32997636 26 37 C27.16956616 38.8370516 28.3388363 40.67429169 29.5078125 42.51171875 C30.08563477 43.41970215 30.66345703 44.32768555 31.25878906 45.26318359 C32.98299368 47.97326966 34.70644183 50.68383534 36.4296875 53.39453125 C42.73470891 63.31111474 49.0488786 73.22186278 55.375 83.125 C56.01679199 84.13151611 56.65858398 85.13803223 57.31982422 86.17504883 C61.21567368 92.26828613 65.18493195 98.30559758 69.22509766 104.30419922 C74.77040945 112.72666591 74.77040945 112.72666591 74 119 C70.78782866 125.7897993 64.70063559 128.69939297 58.4375 132.4375 C56.35261304 133.70661811 54.26797634 134.97614744 52.18359375 136.24609375 C51.1560498 136.86339355 50.12850586 137.48069336 49.06982422 138.11669922 C45.15904014 140.51591891 41.35025335 143.0594967 37.55493164 145.63696289 C33.44384982 147.8301946 30.16662727 148.2376463 25.625 147.3125 C17.76113661 143.51076472 13.70753846 132.55688379 9.7890625 125.19140625 C5.53105332 117.59578725 0.69497511 110.33009438 -4 103 C-5.28130873 100.9961313 -6.56255662 98.9922237 -7.84375 96.98828125 C-10.55132862 92.75518984 -13.26145838 88.52374279 -15.97265625 84.29296875 C-19.76600637 78.37046552 -23.54126449 72.43660069 -27.3125 66.5 C-32.01618819 59.09603405 -36.75137228 51.71372286 -41.53833008 44.36328125 C-48.75250959 33.26756713 -48.75250959 33.26756713 -48 28 C-44.75918745 21.25795246 -38.80830747 18.3560519 -32.5625 14.625 C-30.38792051 13.30485275 -28.21344051 11.98454159 -26.0390625 10.6640625 C-24.99524414 10.03532227 -23.95142578 9.40658203 -22.87597656 8.75878906 C-20.471916 7.28859787 -18.11345187 5.77995768 -15.7734375 4.2109375 C-14.90223267 3.63545166 -14.90223267 3.63545166 -14.01342773 3.04833984 C-12.56349895 2.08381712 -11.12306302 1.10506418 -9.68359375 0.125 C-6.00241394 -1.41820202 -3.82401119 -1.03235398 0 0 Z " fill="#FEEA87" transform="translate(380,261)"/>
<path d="M0 0 C0.33 0 0.66 0 1 0 C1.04980921 5.51349605 1.08591163 11.02685821 1.10986328 16.54052734 C1.11985894 18.41229538 1.13345997 20.28404805 1.15087891 22.15576172 C1.17541268 24.86169246 1.18654768 27.56741499 1.1953125 30.2734375 C1.20563507 31.09677582 1.21595764 31.92011414 1.22659302 32.7684021 C1.22883492 44.64225161 -1.44731444 55.43973454 -9.6875 64.3125 C-19.55150329 73.52510684 -30.6712283 75.30598481 -43.63647461 75.22705078 C-44.8957074 75.22734283 -46.15494019 75.22763489 -47.45233154 75.22793579 C-50.88781573 75.22850724 -54.32315893 75.21678688 -57.75861049 75.20278788 C-61.35538811 75.19024561 -64.95216933 75.18910727 -68.54896545 75.18673706 C-75.35217066 75.18053253 -82.15531124 75.16413569 -88.95848805 75.14403808 C-96.70698235 75.12164703 -104.45547982 75.1106776 -112.20399845 75.10064721 C-128.13604272 75.07976849 -144.067998 75.04310517 -160 75 C-160 61.8 -160 48.6 -160 35 C-156.19057861 34.9906543 -152.38115723 34.98130859 -148.45629883 34.97167969 C-135.83948998 34.93784206 -123.22285185 34.88245414 -110.60617542 34.81609726 C-102.96018466 34.77640523 -95.31429536 34.74396309 -87.66821289 34.72900391 C-80.99848134 34.71593606 -74.32897394 34.68884185 -67.65936869 34.64538693 C-64.13270303 34.62288645 -60.60631266 34.60708237 -57.07956886 34.60811615 C-53.12809441 34.60901018 -49.17717583 34.57856734 -45.22583008 34.54589844 C-44.07567413 34.5509288 -42.92551819 34.55595917 -41.74050903 34.56114197 C-30.51378787 34.41848257 -19.20572526 32.14952166 -11 24 C-4.64410215 16.87500949 -1.78755896 9.27427651 0 0 Z " fill="#EAEEF1" transform="translate(459,137)"/>
<path d="M0 0 C0.33 0 0.66 0 1 0 C1.15855469 0.76183594 1.31710938 1.52367187 1.48046875 2.30859375 C4.09544563 13.88095001 8.06091032 22.07085546 18 29 C24.26675952 32.17932374 30.34733745 34.11034179 37.37835693 34.15821838 C38.46928146 34.1680072 39.56020599 34.17779602 40.68418884 34.18788147 C41.87605301 34.19363693 43.06791718 34.1993924 44.29589844 34.20532227 C45.55469315 34.21522186 46.81348785 34.22512146 48.11042786 34.23532104 C51.55840792 34.26232751 55.0064016 34.28336008 58.45442867 34.30332303 C62.05926425 34.32520889 65.66405803 34.35258485 69.26885986 34.37937927 C76.09336066 34.42927102 82.91788471 34.47422288 89.74243093 34.51740164 C97.51265734 34.5668041 105.28284181 34.62171106 113.05302763 34.67708123 C129.03531446 34.79084727 145.0176398 34.89697135 161 35 C161 48.2 161 61.4 161 75 C144.387726 75.09050355 127.77566438 75.16409969 111.16321182 75.20724869 C103.44872422 75.22782137 95.73440135 75.2558398 88.02001953 75.30175781 C81.29144954 75.34178872 74.56299893 75.36747124 67.83431315 75.37635398 C64.27573654 75.38154145 60.71750128 75.3936212 57.15903473 75.42292023 C53.17390692 75.45546213 49.18936203 75.45594909 45.20410156 75.45410156 C44.0409996 75.46848267 42.87789764 75.48286377 41.67955017 75.49768066 C29.2995745 75.43590383 19.16877426 72.08541642 10.3203125 63.33984375 C1.62307732 53.84211677 -0.35270875 42.82751603 -0.1953125 30.2734375 C-0.19106766 28.96289902 -0.19106766 28.96289902 -0.18673706 27.62588501 C-0.17567303 24.87544186 -0.15059581 22.12534226 -0.125 19.375 C-0.11495234 17.49349433 -0.10582964 15.61198349 -0.09765625 13.73046875 C-0.07577912 9.15351643 -0.04134719 4.57681615 0 0 Z " fill="#EBEEF1" transform="translate(52,137)"/>
<path d="M0 0 C1.03769531 -0.02578125 2.07539063 -0.0515625 3.14453125 -0.078125 C6.54901636 0.28898251 8.41142285 1.3000752 11.1875 3.25 C10.23499524 9.16795634 7.51208886 13.92656002 4.75 19.1875 C4.21084961 20.21641357 3.67169922 21.24532715 3.11621094 22.30541992 C-1.25310979 30.4917885 -6.08661114 37.96337555 -11.8125 45.25 C-12.60398438 46.26191406 -13.39546875 47.27382813 -14.2109375 48.31640625 C-16.05751236 50.64568226 -17.92110976 52.95708557 -19.8125 55.25 C-25.46875 54.5859375 -25.46875 54.5859375 -28.5625 51.5625 C-33.06929623 45.41818617 -33.88863752 38.68601329 -32.8125 31.25 C-28.39744884 18.23986826 -14.81792439 0.21925412 0 0 Z " fill="#D6B3A8" transform="translate(146.8125,386.75)"/>
<path d="M0 0 C4.24155181 1.27691896 7.70892088 3.9868029 11.30685425 6.4992981 C12.187435 7.09895386 13.06801575 7.69860962 13.97528076 8.31643677 C16.82443709 10.26028619 19.66120163 12.2214393 22.4982605 14.18289185 C24.44745742 15.51683371 26.39757403 16.84943268 28.34860229 18.18069458 C32.18357655 20.79874009 36.01475421 23.42218733 39.84298706 26.05007935 C46.31437917 30.48636697 52.83446246 34.8468259 59.3732605 39.18289185 C64.71317622 42.73370602 64.71317622 42.73370602 67.0085144 44.26541138 C68.32467453 45.13439647 69.64929168 45.9907825 70.98410034 46.83084106 C72.37457652 47.71275411 73.72413982 48.65880992 75.0607605 49.62039185 C75.0607605 50.28039185 75.0607605 50.94039185 75.0607605 51.62039185 C68.26796865 53.88465579 60.46880904 54.46621687 53.7593689 51.65670776 C47.81480872 48.47449026 42.3948551 44.49508973 36.9357605 40.55789185 C35.21584586 39.35772602 33.49349465 38.16104467 31.76876831 36.96780396 C28.38558066 34.6200815 25.01655656 32.25419529 21.65939331 29.86941528 C17.72253147 27.07720957 13.7501533 24.34576245 9.740448 21.65945435 C8.71451538 20.97117554 7.68858276 20.28289673 6.63156128 19.57376099 C5.70069702 18.94977417 4.76983276 18.32578735 3.8107605 17.68289185 C2.13571497 16.55346527 0.46347174 15.41986196 -1.2048645 14.2805481 C-2.19148071 13.60971191 -2.19148071 13.60971191 -3.19802856 12.92532349 C-4.97727248 11.59188844 -6.49983195 10.31777044 -7.9392395 8.62039185 C-8.33234691 5.4755326 -8.41479163 3.48757514 -6.8767395 0.68289185 C-4.43516211 -0.65603769 -2.70069984 -0.44647247 0 0 Z " fill="#F1CBBC" transform="translate(306.9392395019531,392.3796081542969)"/>
<path d="M0 0 C3 2 3 2 4 5 C4.86899465 12.00257134 4.33716689 16.79309028 0.03857422 22.4519043 C-0.81583252 23.49664917 -0.81583252 23.49664917 -1.6875 24.5625 C-2.88744673 26.1218359 -4.08664424 27.68174859 -5.28515625 29.2421875 C-5.90277832 30.02819336 -6.52040039 30.81419922 -7.15673828 31.62402344 C-10.08723214 35.40144943 -12.84730239 39.29721418 -15.625 43.1875 C-16.6982844 44.66994775 -17.77249454 46.15172573 -18.84765625 47.6328125 C-20.96090684 50.55002421 -23.04887804 53.4832047 -25.12109375 56.4296875 C-26.10150806 57.80733041 -27.08197433 59.18493635 -28.0625 60.5625 C-28.50352051 61.20018311 -28.94454102 61.83786621 -29.39892578 62.49487305 C-32.44948795 66.74948018 -32.44948795 66.74948018 -35.04296875 67.9296875 C-38.45634834 68.05232389 -41.62319609 67.50652059 -45 67 C-45 62.87504733 -44.90075778 62.36822227 -42.61328125 59.3046875 C-42.0937085 58.59820068 -41.57413574 57.89171387 -41.03881836 57.16381836 C-40.4691333 56.4085083 -39.89944824 55.65319824 -39.3125 54.875 C-38.11176137 53.24885871 -36.91124671 51.62255203 -35.7109375 49.99609375 C-35.0931543 49.16577637 -34.47537109 48.33545898 -33.83886719 47.47998047 C-31.00425202 43.6570887 -28.22031606 39.79817628 -25.4375 35.9375 C-24.63735474 34.83027588 -24.63735474 34.83027588 -23.82104492 33.70068359 C-15.76914982 22.54665919 -7.87206119 11.28143981 0 0 Z " fill="#CCA393" transform="translate(202,399)"/>
<path d="M0 0 C5.00160003 1.43039389 8.77104265 4.20309634 13.02001953 7.14672852 C14.39623978 8.08167397 14.39623978 8.08167397 15.80026245 9.0355072 C18.73187599 11.030268 21.65338494 13.03927785 24.57470703 15.04907227 C26.51675103 16.37491568 28.45945313 17.69979566 30.40283203 19.02368164 C34.11324969 21.5526061 37.82036095 24.08625596 41.52490234 26.6237793 C47.13384208 30.46094495 52.77764065 34.24324722 58.44970703 37.98657227 C58.11970703 38.97657227 57.78970703 39.96657227 57.44970703 40.98657227 C54.3060096 42.03447141 51.93896602 42.18673439 48.63720703 42.23657227 C47.11160156 42.27524414 47.11160156 42.27524414 45.55517578 42.31469727 C38.61841671 41.58175668 32.85955502 36.7159906 27.21923828 32.89282227 C26.34700119 32.30488892 25.4747641 31.71695557 24.57609558 31.11120605 C22.74021256 29.87236961 20.90554339 28.63173261 19.07202148 27.3894043 C16.26456618 25.4881699 13.45216335 23.59442942 10.63916016 21.70141602 C8.85305205 20.49482994 7.06723464 19.28781342 5.28173828 18.08032227 C4.44109329 17.51462524 3.6004483 16.94892822 2.73432922 16.36608887 C1.95309189 15.83543823 1.17185455 15.3047876 0.36694336 14.75805664 C-0.31889328 14.29411499 -1.00472992 13.83017334 -1.71134949 13.35217285 C-6.39037878 9.87752276 -6.39037878 9.87752276 -6.98779297 6.54907227 C-6.55029297 3.98657227 -6.55029297 3.98657227 -4.92529297 1.61157227 C-2.55029297 -0.01342773 -2.55029297 -0.01342773 0 0 Z " fill="#F1CBBC" transform="translate(292.55029296875,424.013427734375)"/>
<path d="M0 0 C0.66 0 1.32 0 2 0 C2.92998954 13.18518497 -0.34104135 20.17916627 -8.75 29.9375 C-10.33085655 31.73412603 -11.91986531 33.52317349 -13.51171875 35.31005859 C-15.65237204 37.7407676 -17.70436471 40.23912474 -19.75 42.75 C-20.45898438 43.61882812 -21.16796875 44.48765625 -21.8984375 45.3828125 C-23.35654873 47.19867593 -24.79818759 49.02784156 -26.2265625 50.8671875 C-27.29003906 52.23230469 -27.29003906 52.23230469 -28.375 53.625 C-29.00148437 54.44226563 -29.62796875 55.25953125 -30.2734375 56.1015625 C-32 58 -32 58 -35 59 C-37.22818441 59.06937062 -39.45834524 59.08457084 -41.6875 59.0625 C-43.45673828 59.04896484 -43.45673828 59.04896484 -45.26171875 59.03515625 C-46.16535156 59.02355469 -47.06898438 59.01195312 -48 59 C-39.93338422 48.09916787 -31.56656959 37.53343451 -22.63330078 27.33251953 C-18.96652224 23.13956649 -15.4362036 18.86549837 -11.98046875 14.49609375 C-9.5523601 11.43581479 -7.10043619 8.39708208 -4.625 5.375 C-3.37589844 3.83972656 -3.37589844 3.83972656 -2.1015625 2.2734375 C-1.40804687 1.52320313 -0.71453125 0.77296875 0 0 Z " fill="#CCA393" transform="translate(233,425)"/>
<path d="M0 0 C3.78823229 1.72975069 5.27345454 3.11527272 7 7 C7.59537348 13.06536734 6.11820998 16.73337848 3.25 21.875 C2.85675537 22.60025879 2.46351074 23.32551758 2.05834961 24.07275391 C-2.30691349 31.90715046 -7.48831502 39.16552625 -12.81420898 46.36865234 C-13.91590793 47.88431064 -14.96062732 49.44094098 -16 51 C-19.42232972 52.14077657 -22.08673217 52.09815117 -25.6875 52.0625 C-27.45673828 52.04896484 -27.45673828 52.04896484 -29.26171875 52.03515625 C-30.16535156 52.02355469 -31.06898437 52.01195312 -32 52 C-31.11465313 50.81895809 -30.22921749 49.63798273 -29.34375 48.45703125 C-28.79332031 47.72178223 -28.24289063 46.9865332 -27.67578125 46.22900391 C-26.6581076 44.87536748 -25.63589424 43.52510716 -24.60546875 42.18115234 C-14.58399482 29.07415823 -7.29943817 14.72747928 0 0 Z " fill="#CCA393" transform="translate(158,391)"/>
<path d="M0 0 C2.17365914 1.26894696 4.19350477 2.56289984 6.25 4 C7.55842738 4.89737805 8.86703596 5.79449192 10.17578125 6.69140625 C10.91779785 7.2033252 11.65981445 7.71524414 12.42431641 8.24267578 C14.87742976 9.9163734 17.3469456 11.56338137 19.82376099 13.20175171 C22.12397019 14.72445877 24.4182839 16.25591872 26.71203613 17.78833008 C27.86261452 18.55462261 29.0153755 19.31764804 30.17028809 20.07739258 C31.8061783 21.15514172 33.43260245 22.24721743 35.05859375 23.33984375 C36.01048584 23.97269287 36.96237793 24.60554199 37.94311523 25.25756836 C38.62188721 25.8325708 39.30065918 26.40757324 40 27 C40 27.99 40 28.98 40 30 C37.05638781 31.4718061 34.39951798 31.13180773 31.125 31.125 C29.89007813 31.12757813 28.65515625 31.13015625 27.3828125 31.1328125 C20.85463562 30.87650994 20.85463562 30.87650994 18.23535156 28.19018555 C15.79823407 25.80231081 13.29111821 24.07066968 10.4296875 22.21484375 C9.36878906 21.51939453 8.30789063 20.82394531 7.21484375 20.10742188 C5.53870496 19.01842176 3.86255523 17.92943661 2.18505859 16.8425293 C0.55508424 15.784021 -1.07018431 14.71827741 -2.6953125 13.65234375 C-3.66484863 13.02320068 -4.63438477 12.39405762 -5.63330078 11.74584961 C-8 10 -8 10 -10 7 C-9.84277479 3.85549576 -9.40991827 2.43919814 -7.25 0.125 C-4.27001116 -1.36499442 -3.17734688 -0.94778813 0 0 Z " fill="#F1CBBC" transform="translate(281,456)"/>
<path d="M0 0 C0.66 0.33 1.32 0.66 2 1 C2.97443804 14.15491356 -4.79133107 25.2334534 -13 34.9375 C-17.14400304 39.35882638 -20.54354055 42.72367059 -26.8828125 43.23046875 C-29.60286726 43.2478604 -32.28625843 43.1766631 -35 43 C-32.20461633 38.63711146 -29.14479749 34.66780551 -25.75 30.75 C-22.43512648 26.88118209 -19.16091054 22.99685382 -16 19 C-4.54761905 4.54761905 -4.54761905 4.54761905 0 0 Z " fill="#CCA393" transform="translate(251,456)"/>
<path d="M0 0 C2.375 2.0625 2.375 2.0625 4 5 C3.75 8.8125 3.75 8.8125 3 12 C-0.25 12.75 -0.25 12.75 -4 13 C-6.4375 11.4375 -6.4375 11.4375 -8 9 C-8.46181576 5.76728968 -8.57844751 3.91333817 -6.8125 1.125 C-4.27353509 -0.45090926 -2.93597381 -0.57287294 0 0 Z " fill="#ECEEEC" transform="translate(371,290)"/>
<path d="M0 0 C2.875 0.9375 2.875 0.9375 4.875 3.9375 C4.68266941 7.01478941 4.3467187 9.19268099 2.6875 11.8125 C0.01321847 13.47239888 -2.04930852 13.26470122 -5.125 12.9375 C-7.125 10.9375 -7.125 10.9375 -7.5 7.5625 C-7.125 3.9375 -7.125 3.9375 -5.5 1.4375 C-3.125 -0.0625 -3.125 -0.0625 0 0 Z " fill="#ECE9EB" transform="translate(138.125,290.0625)"/>
</svg>
